<mxfile host="app.diagrams.net" modified="2023-12-30T10:42:24.959Z" agent="Mozilla/5.0 (Windows NT 10.0; Win64; x64) AppleWebKit/537.36 (KHTML, like Gecko) Chrome/120.0.0.0 Safari/537.36 Edg/120.0.0.0" etag="_ccTLjEfk8qn_x07qCU2" version="22.1.16" type="github">
  <diagram name="Page-1" id="1Co5AFttE1sdkpLuGWpp">
    <mxGraphModel dx="1002" dy="617" grid="1" gridSize="10" guides="1" tooltips="1" connect="1" arrows="1" fold="1" page="1" pageScale="1" pageWidth="827" pageHeight="1169" math="0" shadow="0">
      <root>
        <mxCell id="0" />
        <mxCell id="1" parent="0" />
        <mxCell id="FiZlv9GbAcb9ufF7oLum-6" value="" style="rounded=1;whiteSpace=wrap;html=1;labelBackgroundColor=none;" parent="1" vertex="1">
          <mxGeometry x="186.5" y="120" width="475" height="160" as="geometry" />
        </mxCell>
        <mxCell id="Yl7VU8M9X4uE9OL1-MA8-65" value="" style="rounded=1;whiteSpace=wrap;html=1;labelBackgroundColor=none;" parent="1" vertex="1">
          <mxGeometry x="14" y="70" width="140" height="60" as="geometry" />
        </mxCell>
        <mxCell id="Yl7VU8M9X4uE9OL1-MA8-66" value="" style="sketch=0;pointerEvents=1;shadow=0;dashed=0;html=1;strokeColor=none;aspect=fixed;labelPosition=center;verticalLabelPosition=bottom;verticalAlign=top;align=center;outlineConnect=0;shape=mxgraph.vvd.ethernet_port;labelBackgroundColor=none;rounded=1;" parent="1" vertex="1">
          <mxGeometry x="24" y="100" width="20" height="20" as="geometry" />
        </mxCell>
        <mxCell id="Yl7VU8M9X4uE9OL1-MA8-67" value="" style="sketch=0;pointerEvents=1;shadow=0;dashed=0;html=1;strokeColor=none;aspect=fixed;labelPosition=center;verticalLabelPosition=bottom;verticalAlign=top;align=center;outlineConnect=0;shape=mxgraph.vvd.ethernet_port;labelBackgroundColor=none;rounded=1;" parent="1" vertex="1">
          <mxGeometry x="54" y="100" width="20" height="20" as="geometry" />
        </mxCell>
        <mxCell id="Yl7VU8M9X4uE9OL1-MA8-68" value="&lt;b&gt;1N&lt;/b&gt;" style="text;html=1;strokeColor=none;fillColor=none;align=center;verticalAlign=middle;whiteSpace=wrap;rounded=1;labelBackgroundColor=none;" parent="1" vertex="1">
          <mxGeometry x="104" y="70" width="60" height="30" as="geometry" />
        </mxCell>
        <mxCell id="Yl7VU8M9X4uE9OL1-MA8-69" value="" style="verticalLabelPosition=bottom;verticalAlign=top;html=1;shape=mxgraph.basic.rounded_frame;dx=10;whiteSpace=wrap;labelBackgroundColor=none;rounded=1;" parent="1" vertex="1">
          <mxGeometry x="616.5" y="240" width="20" height="15" as="geometry" />
        </mxCell>
        <mxCell id="Yl7VU8M9X4uE9OL1-MA8-76" value="" style="verticalLabelPosition=bottom;verticalAlign=top;html=1;shape=mxgraph.basic.rounded_frame;dx=10;whiteSpace=wrap;labelBackgroundColor=none;rounded=1;" parent="1" vertex="1">
          <mxGeometry x="584" y="240" width="20" height="15" as="geometry" />
        </mxCell>
        <mxCell id="Yl7VU8M9X4uE9OL1-MA8-77" value="" style="verticalLabelPosition=bottom;verticalAlign=top;html=1;shape=mxgraph.basic.rounded_frame;dx=10;whiteSpace=wrap;labelBackgroundColor=none;rounded=1;" parent="1" vertex="1">
          <mxGeometry x="544" y="240" width="20" height="15" as="geometry" />
        </mxCell>
        <mxCell id="Yl7VU8M9X4uE9OL1-MA8-78" value="" style="verticalLabelPosition=bottom;verticalAlign=top;html=1;shape=mxgraph.basic.rounded_frame;dx=10;whiteSpace=wrap;labelBackgroundColor=none;rounded=1;" parent="1" vertex="1">
          <mxGeometry x="616.5" y="195" width="20" height="15" as="geometry" />
        </mxCell>
        <mxCell id="Yl7VU8M9X4uE9OL1-MA8-79" value="" style="verticalLabelPosition=bottom;verticalAlign=top;html=1;shape=mxgraph.basic.rounded_frame;dx=10;whiteSpace=wrap;labelBackgroundColor=none;rounded=1;" parent="1" vertex="1">
          <mxGeometry x="584" y="195" width="20" height="15" as="geometry" />
        </mxCell>
        <mxCell id="Yl7VU8M9X4uE9OL1-MA8-80" value="" style="verticalLabelPosition=bottom;verticalAlign=top;html=1;shape=mxgraph.basic.rounded_frame;dx=10;whiteSpace=wrap;labelBackgroundColor=none;rounded=1;" parent="1" vertex="1">
          <mxGeometry x="544" y="195" width="20" height="15" as="geometry" />
        </mxCell>
        <mxCell id="Yl7VU8M9X4uE9OL1-MA8-81" value="" style="verticalLabelPosition=bottom;verticalAlign=top;html=1;shape=mxgraph.basic.rounded_frame;dx=10;whiteSpace=wrap;labelBackgroundColor=none;rounded=1;" parent="1" vertex="1">
          <mxGeometry x="444" y="240" width="20" height="15" as="geometry" />
        </mxCell>
        <mxCell id="Yl7VU8M9X4uE9OL1-MA8-82" value="" style="verticalLabelPosition=bottom;verticalAlign=top;html=1;shape=mxgraph.basic.rounded_frame;dx=10;whiteSpace=wrap;labelBackgroundColor=none;rounded=1;" parent="1" vertex="1">
          <mxGeometry x="416.5" y="240" width="20" height="15" as="geometry" />
        </mxCell>
        <mxCell id="Yl7VU8M9X4uE9OL1-MA8-83" value="" style="verticalLabelPosition=bottom;verticalAlign=top;html=1;shape=mxgraph.basic.rounded_frame;dx=10;whiteSpace=wrap;labelBackgroundColor=none;rounded=1;" parent="1" vertex="1">
          <mxGeometry x="386.5" y="240" width="20" height="15" as="geometry" />
        </mxCell>
        <mxCell id="Yl7VU8M9X4uE9OL1-MA8-87" value="" style="verticalLabelPosition=bottom;verticalAlign=top;html=1;shape=mxgraph.basic.rounded_frame;dx=10;whiteSpace=wrap;labelBackgroundColor=none;rounded=1;" parent="1" vertex="1">
          <mxGeometry x="296.5" y="240" width="20" height="15" as="geometry" />
        </mxCell>
        <mxCell id="Yl7VU8M9X4uE9OL1-MA8-88" value="" style="verticalLabelPosition=bottom;verticalAlign=top;html=1;shape=mxgraph.basic.rounded_frame;dx=10;whiteSpace=wrap;labelBackgroundColor=none;rounded=1;" parent="1" vertex="1">
          <mxGeometry x="271.5" y="240" width="20" height="15" as="geometry" />
        </mxCell>
        <mxCell id="Yl7VU8M9X4uE9OL1-MA8-89" value="" style="verticalLabelPosition=bottom;verticalAlign=top;html=1;shape=mxgraph.basic.rounded_frame;dx=10;whiteSpace=wrap;labelBackgroundColor=none;rounded=1;" parent="1" vertex="1">
          <mxGeometry x="244" y="240" width="20" height="15" as="geometry" />
        </mxCell>
        <mxCell id="Yl7VU8M9X4uE9OL1-MA8-118" value="&lt;b&gt;P1&lt;/b&gt;" style="text;html=1;strokeColor=none;fillColor=none;align=center;verticalAlign=middle;whiteSpace=wrap;rounded=1;labelBackgroundColor=none;" parent="1" vertex="1">
          <mxGeometry x="234" y="212.5" width="40" height="12.5" as="geometry" />
        </mxCell>
        <mxCell id="Yl7VU8M9X4uE9OL1-MA8-119" value="&lt;b&gt;P2&lt;/b&gt;" style="text;html=1;strokeColor=none;fillColor=none;align=center;verticalAlign=middle;whiteSpace=wrap;rounded=1;labelBackgroundColor=none;" parent="1" vertex="1">
          <mxGeometry x="261.5" y="212.5" width="40" height="12.5" as="geometry" />
        </mxCell>
        <mxCell id="Yl7VU8M9X4uE9OL1-MA8-120" value="&lt;b&gt;P3&lt;/b&gt;" style="text;html=1;strokeColor=none;fillColor=none;align=center;verticalAlign=middle;whiteSpace=wrap;rounded=1;labelBackgroundColor=none;" parent="1" vertex="1">
          <mxGeometry x="286.5" y="210" width="40" height="17.5" as="geometry" />
        </mxCell>
        <mxCell id="Yl7VU8M9X4uE9OL1-MA8-121" value="&lt;b&gt;G1&lt;/b&gt;" style="text;html=1;strokeColor=none;fillColor=none;align=center;verticalAlign=middle;whiteSpace=wrap;rounded=1;labelBackgroundColor=none;" parent="1" vertex="1">
          <mxGeometry x="366.5" y="202.5" width="60" height="30" as="geometry" />
        </mxCell>
        <mxCell id="Yl7VU8M9X4uE9OL1-MA8-123" value="&lt;b&gt;G2&lt;/b&gt;" style="text;html=1;strokeColor=none;fillColor=none;align=center;verticalAlign=middle;whiteSpace=wrap;rounded=1;labelBackgroundColor=none;" parent="1" vertex="1">
          <mxGeometry x="396.5" y="202.5" width="60" height="30" as="geometry" />
        </mxCell>
        <mxCell id="Yl7VU8M9X4uE9OL1-MA8-124" value="&lt;b&gt;G3&lt;/b&gt;" style="text;html=1;strokeColor=none;fillColor=none;align=center;verticalAlign=middle;whiteSpace=wrap;rounded=1;labelBackgroundColor=none;" parent="1" vertex="1">
          <mxGeometry x="424" y="202.5" width="60" height="30" as="geometry" />
        </mxCell>
        <mxCell id="Yl7VU8M9X4uE9OL1-MA8-126" value="" style="rounded=1;whiteSpace=wrap;html=1;labelBackgroundColor=none;" parent="1" vertex="1">
          <mxGeometry x="194" y="370" width="475" height="160" as="geometry" />
        </mxCell>
        <mxCell id="Yl7VU8M9X4uE9OL1-MA8-127" value="" style="verticalLabelPosition=bottom;verticalAlign=top;html=1;shape=mxgraph.basic.rounded_frame;dx=10;whiteSpace=wrap;labelBackgroundColor=none;rounded=1;" parent="1" vertex="1">
          <mxGeometry x="224" y="500" width="20" height="15" as="geometry" />
        </mxCell>
        <mxCell id="Yl7VU8M9X4uE9OL1-MA8-129" value="" style="verticalLabelPosition=bottom;verticalAlign=top;html=1;shape=mxgraph.basic.rounded_frame;dx=10;whiteSpace=wrap;labelBackgroundColor=none;rounded=1;" parent="1" vertex="1">
          <mxGeometry x="254" y="500" width="20" height="15" as="geometry" />
        </mxCell>
        <mxCell id="Yl7VU8M9X4uE9OL1-MA8-131" value="" style="verticalLabelPosition=bottom;verticalAlign=top;html=1;shape=mxgraph.basic.rounded_frame;dx=10;whiteSpace=wrap;labelBackgroundColor=none;rounded=1;" parent="1" vertex="1">
          <mxGeometry x="314" y="500" width="20" height="15" as="geometry" />
        </mxCell>
        <mxCell id="Yl7VU8M9X4uE9OL1-MA8-132" value="" style="verticalLabelPosition=bottom;verticalAlign=top;html=1;shape=mxgraph.basic.rounded_frame;dx=10;whiteSpace=wrap;labelBackgroundColor=none;rounded=1;" parent="1" vertex="1">
          <mxGeometry x="284" y="500" width="20" height="15" as="geometry" />
        </mxCell>
        <mxCell id="Yl7VU8M9X4uE9OL1-MA8-133" value="" style="verticalLabelPosition=bottom;verticalAlign=top;html=1;shape=mxgraph.basic.rounded_frame;dx=10;whiteSpace=wrap;labelBackgroundColor=none;rounded=1;" parent="1" vertex="1">
          <mxGeometry x="354" y="500" width="20" height="15" as="geometry" />
        </mxCell>
        <mxCell id="Yl7VU8M9X4uE9OL1-MA8-134" value="" style="verticalLabelPosition=bottom;verticalAlign=top;html=1;shape=mxgraph.basic.rounded_frame;dx=10;whiteSpace=wrap;labelBackgroundColor=none;rounded=1;" parent="1" vertex="1">
          <mxGeometry x="384" y="500" width="20" height="15" as="geometry" />
        </mxCell>
        <mxCell id="Yl7VU8M9X4uE9OL1-MA8-135" value="" style="verticalLabelPosition=bottom;verticalAlign=top;html=1;shape=mxgraph.basic.rounded_frame;dx=10;whiteSpace=wrap;labelBackgroundColor=none;rounded=1;" parent="1" vertex="1">
          <mxGeometry x="414" y="500" width="20" height="15" as="geometry" />
        </mxCell>
        <mxCell id="Yl7VU8M9X4uE9OL1-MA8-137" value="" style="verticalLabelPosition=bottom;verticalAlign=top;html=1;shape=mxgraph.basic.rounded_frame;dx=10;whiteSpace=wrap;labelBackgroundColor=none;rounded=1;" parent="1" vertex="1">
          <mxGeometry x="444" y="500" width="20" height="15" as="geometry" />
        </mxCell>
        <mxCell id="Yl7VU8M9X4uE9OL1-MA8-139" value="" style="verticalLabelPosition=bottom;verticalAlign=top;html=1;shape=mxgraph.basic.rounded_frame;dx=10;whiteSpace=wrap;labelBackgroundColor=none;rounded=1;" parent="1" vertex="1">
          <mxGeometry x="489" y="500" width="20" height="15" as="geometry" />
        </mxCell>
        <mxCell id="Yl7VU8M9X4uE9OL1-MA8-140" value="" style="verticalLabelPosition=bottom;verticalAlign=top;html=1;shape=mxgraph.basic.rounded_frame;dx=10;whiteSpace=wrap;labelBackgroundColor=none;rounded=1;" parent="1" vertex="1">
          <mxGeometry x="514" y="500" width="20" height="15" as="geometry" />
        </mxCell>
        <mxCell id="Yl7VU8M9X4uE9OL1-MA8-141" value="" style="verticalLabelPosition=bottom;verticalAlign=top;html=1;shape=mxgraph.basic.rounded_frame;dx=10;whiteSpace=wrap;labelBackgroundColor=none;rounded=1;" parent="1" vertex="1">
          <mxGeometry x="544" y="500" width="20" height="15" as="geometry" />
        </mxCell>
        <mxCell id="Yl7VU8M9X4uE9OL1-MA8-142" value="" style="verticalLabelPosition=bottom;verticalAlign=top;html=1;shape=mxgraph.basic.rounded_frame;dx=10;whiteSpace=wrap;labelBackgroundColor=none;rounded=1;" parent="1" vertex="1">
          <mxGeometry x="574" y="500" width="20" height="15" as="geometry" />
        </mxCell>
        <mxCell id="Yl7VU8M9X4uE9OL1-MA8-144" value="&lt;b&gt;P1&lt;/b&gt;" style="text;html=1;strokeColor=none;fillColor=none;align=center;verticalAlign=middle;whiteSpace=wrap;rounded=1;labelBackgroundColor=none;" parent="1" vertex="1">
          <mxGeometry x="204" y="470" width="60" height="30" as="geometry" />
        </mxCell>
        <mxCell id="Yl7VU8M9X4uE9OL1-MA8-145" value="&lt;b&gt;P2&lt;/b&gt;" style="text;html=1;strokeColor=none;fillColor=none;align=center;verticalAlign=middle;whiteSpace=wrap;rounded=1;labelBackgroundColor=none;" parent="1" vertex="1">
          <mxGeometry x="234" y="470" width="60" height="30" as="geometry" />
        </mxCell>
        <mxCell id="Yl7VU8M9X4uE9OL1-MA8-146" value="&lt;b&gt;P3&lt;/b&gt;" style="text;html=1;strokeColor=none;fillColor=none;align=center;verticalAlign=middle;whiteSpace=wrap;rounded=1;labelBackgroundColor=none;" parent="1" vertex="1">
          <mxGeometry x="264" y="470" width="60" height="30" as="geometry" />
        </mxCell>
        <mxCell id="Yl7VU8M9X4uE9OL1-MA8-147" value="&lt;b&gt;P4&lt;/b&gt;" style="text;html=1;strokeColor=none;fillColor=none;align=center;verticalAlign=middle;whiteSpace=wrap;rounded=1;labelBackgroundColor=none;" parent="1" vertex="1">
          <mxGeometry x="294" y="470" width="60" height="30" as="geometry" />
        </mxCell>
        <mxCell id="Yl7VU8M9X4uE9OL1-MA8-148" value="&lt;b&gt;G1&lt;/b&gt;" style="text;html=1;strokeColor=none;fillColor=none;align=center;verticalAlign=middle;whiteSpace=wrap;rounded=1;labelBackgroundColor=none;" parent="1" vertex="1">
          <mxGeometry x="334" y="470" width="60" height="30" as="geometry" />
        </mxCell>
        <mxCell id="Yl7VU8M9X4uE9OL1-MA8-150" value="&lt;b&gt;G2&lt;/b&gt;" style="text;html=1;strokeColor=none;fillColor=none;align=center;verticalAlign=middle;whiteSpace=wrap;rounded=1;labelBackgroundColor=none;" parent="1" vertex="1">
          <mxGeometry x="364" y="470" width="60" height="30" as="geometry" />
        </mxCell>
        <mxCell id="Yl7VU8M9X4uE9OL1-MA8-151" value="&lt;b&gt;G3&lt;/b&gt;" style="text;html=1;strokeColor=none;fillColor=none;align=center;verticalAlign=middle;whiteSpace=wrap;rounded=1;labelBackgroundColor=none;" parent="1" vertex="1">
          <mxGeometry x="394" y="470" width="60" height="30" as="geometry" />
        </mxCell>
        <mxCell id="Yl7VU8M9X4uE9OL1-MA8-152" value="&lt;b&gt;G4&lt;/b&gt;" style="text;html=1;strokeColor=none;fillColor=none;align=center;verticalAlign=middle;whiteSpace=wrap;rounded=1;labelBackgroundColor=none;" parent="1" vertex="1">
          <mxGeometry x="424" y="470" width="60" height="30" as="geometry" />
        </mxCell>
        <mxCell id="Yl7VU8M9X4uE9OL1-MA8-153" value="&lt;b&gt;G5&lt;/b&gt;" style="text;html=1;strokeColor=none;fillColor=none;align=center;verticalAlign=middle;whiteSpace=wrap;rounded=1;labelBackgroundColor=none;" parent="1" vertex="1">
          <mxGeometry x="469" y="470" width="60" height="30" as="geometry" />
        </mxCell>
        <mxCell id="Yl7VU8M9X4uE9OL1-MA8-154" value="&lt;b&gt;G6&lt;/b&gt;" style="text;html=1;strokeColor=none;fillColor=none;align=center;verticalAlign=middle;whiteSpace=wrap;rounded=1;labelBackgroundColor=none;" parent="1" vertex="1">
          <mxGeometry x="494" y="470" width="60" height="30" as="geometry" />
        </mxCell>
        <mxCell id="Yl7VU8M9X4uE9OL1-MA8-155" value="&lt;b&gt;G7&lt;/b&gt;" style="text;html=1;strokeColor=none;fillColor=none;align=center;verticalAlign=middle;whiteSpace=wrap;rounded=1;labelBackgroundColor=none;" parent="1" vertex="1">
          <mxGeometry x="524" y="470" width="60" height="30" as="geometry" />
        </mxCell>
        <mxCell id="Yl7VU8M9X4uE9OL1-MA8-156" value="&lt;b&gt;G8&lt;/b&gt;" style="text;html=1;strokeColor=none;fillColor=none;align=center;verticalAlign=middle;whiteSpace=wrap;rounded=1;labelBackgroundColor=none;" parent="1" vertex="1">
          <mxGeometry x="554" y="470" width="60" height="30" as="geometry" />
        </mxCell>
        <mxCell id="Yl7VU8M9X4uE9OL1-MA8-157" value="&lt;i&gt;&lt;b&gt;&lt;u&gt;GPON PORT&lt;/u&gt;&lt;/b&gt;&lt;/i&gt;" style="text;html=1;strokeColor=none;fillColor=none;align=center;verticalAlign=middle;whiteSpace=wrap;rounded=1;labelBackgroundColor=none;" parent="1" vertex="1">
          <mxGeometry x="359" y="435" width="85" height="25" as="geometry" />
        </mxCell>
        <mxCell id="Yl7VU8M9X4uE9OL1-MA8-158" value="&lt;b&gt;&lt;i&gt;&lt;u&gt;ETHERNET PORT&lt;/u&gt;&lt;/i&gt;&lt;/b&gt;" style="text;html=1;strokeColor=none;fillColor=none;align=center;verticalAlign=middle;whiteSpace=wrap;rounded=1;labelBackgroundColor=none;" parent="1" vertex="1">
          <mxGeometry x="489" y="432.5" width="105" height="30" as="geometry" />
        </mxCell>
        <mxCell id="Yl7VU8M9X4uE9OL1-MA8-159" value="&lt;b&gt;&lt;i&gt;&lt;u&gt;PON&lt;/u&gt;&lt;/i&gt;&lt;/b&gt;" style="text;html=1;strokeColor=none;fillColor=none;align=center;verticalAlign=middle;whiteSpace=wrap;rounded=1;labelBackgroundColor=none;" parent="1" vertex="1">
          <mxGeometry x="224" y="435" width="60" height="30" as="geometry" />
        </mxCell>
        <mxCell id="Yl7VU8M9X4uE9OL1-MA8-160" value="" style="rounded=1;whiteSpace=wrap;html=1;labelBackgroundColor=none;" parent="1" vertex="1">
          <mxGeometry x="189" y="617.5" width="475" height="160" as="geometry" />
        </mxCell>
        <mxCell id="Yl7VU8M9X4uE9OL1-MA8-161" value="" style="verticalLabelPosition=bottom;verticalAlign=top;html=1;shape=mxgraph.basic.rounded_frame;dx=10;whiteSpace=wrap;labelBackgroundColor=none;rounded=1;" parent="1" vertex="1">
          <mxGeometry x="224" y="750" width="20" height="15" as="geometry" />
        </mxCell>
        <mxCell id="Yl7VU8M9X4uE9OL1-MA8-162" value="" style="verticalLabelPosition=bottom;verticalAlign=top;html=1;shape=mxgraph.basic.rounded_frame;dx=10;whiteSpace=wrap;labelBackgroundColor=none;rounded=1;" parent="1" vertex="1">
          <mxGeometry x="254" y="750" width="20" height="15" as="geometry" />
        </mxCell>
        <mxCell id="Yl7VU8M9X4uE9OL1-MA8-163" value="" style="verticalLabelPosition=bottom;verticalAlign=top;html=1;shape=mxgraph.basic.rounded_frame;dx=10;whiteSpace=wrap;labelBackgroundColor=none;rounded=1;" parent="1" vertex="1">
          <mxGeometry x="314" y="750" width="20" height="15" as="geometry" />
        </mxCell>
        <mxCell id="Yl7VU8M9X4uE9OL1-MA8-164" value="" style="verticalLabelPosition=bottom;verticalAlign=top;html=1;shape=mxgraph.basic.rounded_frame;dx=10;whiteSpace=wrap;labelBackgroundColor=none;rounded=1;" parent="1" vertex="1">
          <mxGeometry x="284" y="750" width="20" height="15" as="geometry" />
        </mxCell>
        <mxCell id="Yl7VU8M9X4uE9OL1-MA8-165" value="" style="verticalLabelPosition=bottom;verticalAlign=top;html=1;shape=mxgraph.basic.rounded_frame;dx=10;whiteSpace=wrap;labelBackgroundColor=none;rounded=1;" parent="1" vertex="1">
          <mxGeometry x="354" y="750" width="20" height="15" as="geometry" />
        </mxCell>
        <mxCell id="Yl7VU8M9X4uE9OL1-MA8-166" value="" style="verticalLabelPosition=bottom;verticalAlign=top;html=1;shape=mxgraph.basic.rounded_frame;dx=10;whiteSpace=wrap;labelBackgroundColor=none;rounded=1;" parent="1" vertex="1">
          <mxGeometry x="384" y="750" width="20" height="15" as="geometry" />
        </mxCell>
        <mxCell id="Yl7VU8M9X4uE9OL1-MA8-167" value="" style="verticalLabelPosition=bottom;verticalAlign=top;html=1;shape=mxgraph.basic.rounded_frame;dx=10;whiteSpace=wrap;labelBackgroundColor=none;rounded=1;" parent="1" vertex="1">
          <mxGeometry x="414" y="750" width="20" height="15" as="geometry" />
        </mxCell>
        <mxCell id="Yl7VU8M9X4uE9OL1-MA8-168" value="" style="verticalLabelPosition=bottom;verticalAlign=top;html=1;shape=mxgraph.basic.rounded_frame;dx=10;whiteSpace=wrap;labelBackgroundColor=none;rounded=1;" parent="1" vertex="1">
          <mxGeometry x="444" y="750" width="20" height="15" as="geometry" />
        </mxCell>
        <mxCell id="Yl7VU8M9X4uE9OL1-MA8-169" value="" style="verticalLabelPosition=bottom;verticalAlign=top;html=1;shape=mxgraph.basic.rounded_frame;dx=10;whiteSpace=wrap;labelBackgroundColor=none;rounded=1;" parent="1" vertex="1">
          <mxGeometry x="489" y="750" width="20" height="15" as="geometry" />
        </mxCell>
        <mxCell id="Yl7VU8M9X4uE9OL1-MA8-170" value="" style="verticalLabelPosition=bottom;verticalAlign=top;html=1;shape=mxgraph.basic.rounded_frame;dx=10;whiteSpace=wrap;labelBackgroundColor=none;rounded=1;" parent="1" vertex="1">
          <mxGeometry x="514" y="750" width="20" height="15" as="geometry" />
        </mxCell>
        <mxCell id="Yl7VU8M9X4uE9OL1-MA8-171" value="" style="verticalLabelPosition=bottom;verticalAlign=top;html=1;shape=mxgraph.basic.rounded_frame;dx=10;whiteSpace=wrap;labelBackgroundColor=none;rounded=1;" parent="1" vertex="1">
          <mxGeometry x="544" y="750" width="20" height="15" as="geometry" />
        </mxCell>
        <mxCell id="Yl7VU8M9X4uE9OL1-MA8-172" value="" style="verticalLabelPosition=bottom;verticalAlign=top;html=1;shape=mxgraph.basic.rounded_frame;dx=10;whiteSpace=wrap;labelBackgroundColor=none;rounded=1;" parent="1" vertex="1">
          <mxGeometry x="574" y="750" width="20" height="15" as="geometry" />
        </mxCell>
        <mxCell id="Yl7VU8M9X4uE9OL1-MA8-173" value="&lt;b&gt;P1&lt;/b&gt;" style="text;html=1;strokeColor=none;fillColor=none;align=center;verticalAlign=middle;whiteSpace=wrap;rounded=1;labelBackgroundColor=none;" parent="1" vertex="1">
          <mxGeometry x="204" y="720" width="60" height="30" as="geometry" />
        </mxCell>
        <mxCell id="Yl7VU8M9X4uE9OL1-MA8-174" value="&lt;b&gt;P2&lt;/b&gt;" style="text;html=1;strokeColor=none;fillColor=none;align=center;verticalAlign=middle;whiteSpace=wrap;rounded=1;labelBackgroundColor=none;" parent="1" vertex="1">
          <mxGeometry x="234" y="720" width="60" height="30" as="geometry" />
        </mxCell>
        <mxCell id="Yl7VU8M9X4uE9OL1-MA8-175" value="&lt;b&gt;P3&lt;/b&gt;" style="text;html=1;strokeColor=none;fillColor=none;align=center;verticalAlign=middle;whiteSpace=wrap;rounded=1;labelBackgroundColor=none;" parent="1" vertex="1">
          <mxGeometry x="264" y="720" width="60" height="30" as="geometry" />
        </mxCell>
        <mxCell id="Yl7VU8M9X4uE9OL1-MA8-176" value="&lt;b&gt;P4&lt;/b&gt;" style="text;html=1;strokeColor=none;fillColor=none;align=center;verticalAlign=middle;whiteSpace=wrap;rounded=1;labelBackgroundColor=none;" parent="1" vertex="1">
          <mxGeometry x="294" y="720" width="60" height="30" as="geometry" />
        </mxCell>
        <mxCell id="Yl7VU8M9X4uE9OL1-MA8-177" value="&lt;b&gt;G1&lt;/b&gt;" style="text;html=1;strokeColor=none;fillColor=none;align=center;verticalAlign=middle;whiteSpace=wrap;rounded=1;labelBackgroundColor=none;" parent="1" vertex="1">
          <mxGeometry x="334" y="720" width="60" height="30" as="geometry" />
        </mxCell>
        <mxCell id="Yl7VU8M9X4uE9OL1-MA8-178" value="&lt;b&gt;G2&lt;/b&gt;" style="text;html=1;strokeColor=none;fillColor=none;align=center;verticalAlign=middle;whiteSpace=wrap;rounded=1;labelBackgroundColor=none;" parent="1" vertex="1">
          <mxGeometry x="364" y="720" width="60" height="30" as="geometry" />
        </mxCell>
        <mxCell id="Yl7VU8M9X4uE9OL1-MA8-179" value="&lt;b&gt;G3&lt;/b&gt;" style="text;html=1;strokeColor=none;fillColor=none;align=center;verticalAlign=middle;whiteSpace=wrap;rounded=1;labelBackgroundColor=none;" parent="1" vertex="1">
          <mxGeometry x="394" y="720" width="60" height="30" as="geometry" />
        </mxCell>
        <mxCell id="Yl7VU8M9X4uE9OL1-MA8-180" value="&lt;b&gt;G4&lt;/b&gt;" style="text;html=1;strokeColor=none;fillColor=none;align=center;verticalAlign=middle;whiteSpace=wrap;rounded=1;labelBackgroundColor=none;" parent="1" vertex="1">
          <mxGeometry x="424" y="720" width="60" height="30" as="geometry" />
        </mxCell>
        <mxCell id="Yl7VU8M9X4uE9OL1-MA8-181" value="&lt;b&gt;G5&lt;/b&gt;" style="text;html=1;strokeColor=none;fillColor=none;align=center;verticalAlign=middle;whiteSpace=wrap;rounded=1;labelBackgroundColor=none;" parent="1" vertex="1">
          <mxGeometry x="469" y="720" width="60" height="30" as="geometry" />
        </mxCell>
        <mxCell id="Yl7VU8M9X4uE9OL1-MA8-182" value="&lt;b&gt;G6&lt;/b&gt;" style="text;html=1;strokeColor=none;fillColor=none;align=center;verticalAlign=middle;whiteSpace=wrap;rounded=1;labelBackgroundColor=none;" parent="1" vertex="1">
          <mxGeometry x="494" y="720" width="60" height="30" as="geometry" />
        </mxCell>
        <mxCell id="Yl7VU8M9X4uE9OL1-MA8-183" value="&lt;b&gt;G7&lt;/b&gt;" style="text;html=1;strokeColor=none;fillColor=none;align=center;verticalAlign=middle;whiteSpace=wrap;rounded=1;labelBackgroundColor=none;" parent="1" vertex="1">
          <mxGeometry x="524" y="720" width="60" height="30" as="geometry" />
        </mxCell>
        <mxCell id="Yl7VU8M9X4uE9OL1-MA8-184" value="&lt;b&gt;G8&lt;/b&gt;" style="text;html=1;strokeColor=none;fillColor=none;align=center;verticalAlign=middle;whiteSpace=wrap;rounded=1;labelBackgroundColor=none;" parent="1" vertex="1">
          <mxGeometry x="554" y="720" width="60" height="30" as="geometry" />
        </mxCell>
        <mxCell id="Yl7VU8M9X4uE9OL1-MA8-185" value="&lt;i&gt;&lt;b&gt;&lt;u&gt;GPON PORT&lt;/u&gt;&lt;/b&gt;&lt;/i&gt;" style="text;html=1;strokeColor=none;fillColor=none;align=center;verticalAlign=middle;whiteSpace=wrap;rounded=1;labelBackgroundColor=none;" parent="1" vertex="1">
          <mxGeometry x="359" y="685" width="85" height="25" as="geometry" />
        </mxCell>
        <mxCell id="Yl7VU8M9X4uE9OL1-MA8-186" value="&lt;b&gt;&lt;i&gt;&lt;u&gt;ETHERNET PORT&lt;/u&gt;&lt;/i&gt;&lt;/b&gt;" style="text;html=1;strokeColor=none;fillColor=none;align=center;verticalAlign=middle;whiteSpace=wrap;rounded=1;labelBackgroundColor=none;" parent="1" vertex="1">
          <mxGeometry x="489" y="682.5" width="105" height="30" as="geometry" />
        </mxCell>
        <mxCell id="Yl7VU8M9X4uE9OL1-MA8-187" value="&lt;b&gt;&lt;i&gt;&lt;u&gt;PON&lt;/u&gt;&lt;/i&gt;&lt;/b&gt;" style="text;html=1;strokeColor=none;fillColor=none;align=center;verticalAlign=middle;whiteSpace=wrap;rounded=1;labelBackgroundColor=none;" parent="1" vertex="1">
          <mxGeometry x="224" y="685" width="60" height="30" as="geometry" />
        </mxCell>
        <mxCell id="Yl7VU8M9X4uE9OL1-MA8-191" value="" style="sketch=0;pointerEvents=1;shadow=0;dashed=0;html=1;strokeColor=none;fillColor=#434445;aspect=fixed;labelPosition=center;verticalLabelPosition=bottom;verticalAlign=top;align=center;outlineConnect=0;shape=mxgraph.vvd.ethernet_port;rounded=1;" parent="1" vertex="1">
          <mxGeometry x="24" y="100" width="20" height="20" as="geometry" />
        </mxCell>
        <mxCell id="Yl7VU8M9X4uE9OL1-MA8-192" value="" style="sketch=0;pointerEvents=1;shadow=0;dashed=0;html=1;strokeColor=none;fillColor=#434445;aspect=fixed;labelPosition=center;verticalLabelPosition=bottom;verticalAlign=top;align=center;outlineConnect=0;shape=mxgraph.vvd.ethernet_port;rounded=1;" parent="1" vertex="1">
          <mxGeometry x="64" y="100" width="20" height="20" as="geometry" />
        </mxCell>
        <mxCell id="Yl7VU8M9X4uE9OL1-MA8-194" value="" style="rounded=1;whiteSpace=wrap;html=1;labelBackgroundColor=none;" parent="1" vertex="1">
          <mxGeometry x="189" y="840" width="475" height="160" as="geometry" />
        </mxCell>
        <mxCell id="Yl7VU8M9X4uE9OL1-MA8-195" value="" style="verticalLabelPosition=bottom;verticalAlign=top;html=1;shape=mxgraph.basic.rounded_frame;dx=10;whiteSpace=wrap;labelBackgroundColor=none;rounded=1;" parent="1" vertex="1">
          <mxGeometry x="226.5" y="970" width="20" height="15" as="geometry" />
        </mxCell>
        <mxCell id="Yl7VU8M9X4uE9OL1-MA8-196" value="" style="verticalLabelPosition=bottom;verticalAlign=top;html=1;shape=mxgraph.basic.rounded_frame;dx=10;whiteSpace=wrap;labelBackgroundColor=none;rounded=1;" parent="1" vertex="1">
          <mxGeometry x="256.5" y="970" width="20" height="15" as="geometry" />
        </mxCell>
        <mxCell id="Yl7VU8M9X4uE9OL1-MA8-197" value="" style="verticalLabelPosition=bottom;verticalAlign=top;html=1;shape=mxgraph.basic.rounded_frame;dx=10;whiteSpace=wrap;labelBackgroundColor=none;rounded=1;" parent="1" vertex="1">
          <mxGeometry x="316.5" y="970" width="20" height="15" as="geometry" />
        </mxCell>
        <mxCell id="Yl7VU8M9X4uE9OL1-MA8-198" value="" style="verticalLabelPosition=bottom;verticalAlign=top;html=1;shape=mxgraph.basic.rounded_frame;dx=10;whiteSpace=wrap;labelBackgroundColor=none;rounded=1;" parent="1" vertex="1">
          <mxGeometry x="286.5" y="970" width="20" height="15" as="geometry" />
        </mxCell>
        <mxCell id="Yl7VU8M9X4uE9OL1-MA8-199" value="" style="verticalLabelPosition=bottom;verticalAlign=top;html=1;shape=mxgraph.basic.rounded_frame;dx=10;whiteSpace=wrap;labelBackgroundColor=none;rounded=1;" parent="1" vertex="1">
          <mxGeometry x="356.5" y="970" width="20" height="15" as="geometry" />
        </mxCell>
        <mxCell id="Yl7VU8M9X4uE9OL1-MA8-200" value="" style="verticalLabelPosition=bottom;verticalAlign=top;html=1;shape=mxgraph.basic.rounded_frame;dx=10;whiteSpace=wrap;labelBackgroundColor=none;rounded=1;" parent="1" vertex="1">
          <mxGeometry x="386.5" y="970" width="20" height="15" as="geometry" />
        </mxCell>
        <mxCell id="Yl7VU8M9X4uE9OL1-MA8-201" value="" style="verticalLabelPosition=bottom;verticalAlign=top;html=1;shape=mxgraph.basic.rounded_frame;dx=10;whiteSpace=wrap;labelBackgroundColor=none;rounded=1;" parent="1" vertex="1">
          <mxGeometry x="416.5" y="970" width="20" height="15" as="geometry" />
        </mxCell>
        <mxCell id="Yl7VU8M9X4uE9OL1-MA8-202" value="" style="verticalLabelPosition=bottom;verticalAlign=top;html=1;shape=mxgraph.basic.rounded_frame;dx=10;whiteSpace=wrap;labelBackgroundColor=none;rounded=1;" parent="1" vertex="1">
          <mxGeometry x="446.5" y="970" width="20" height="15" as="geometry" />
        </mxCell>
        <mxCell id="Yl7VU8M9X4uE9OL1-MA8-203" value="" style="verticalLabelPosition=bottom;verticalAlign=top;html=1;shape=mxgraph.basic.rounded_frame;dx=10;whiteSpace=wrap;labelBackgroundColor=none;rounded=1;" parent="1" vertex="1">
          <mxGeometry x="491.5" y="970" width="20" height="15" as="geometry" />
        </mxCell>
        <mxCell id="Yl7VU8M9X4uE9OL1-MA8-204" value="" style="verticalLabelPosition=bottom;verticalAlign=top;html=1;shape=mxgraph.basic.rounded_frame;dx=10;whiteSpace=wrap;labelBackgroundColor=none;rounded=1;" parent="1" vertex="1">
          <mxGeometry x="516.5" y="970" width="20" height="15" as="geometry" />
        </mxCell>
        <mxCell id="Yl7VU8M9X4uE9OL1-MA8-205" value="" style="verticalLabelPosition=bottom;verticalAlign=top;html=1;shape=mxgraph.basic.rounded_frame;dx=10;whiteSpace=wrap;labelBackgroundColor=none;rounded=1;" parent="1" vertex="1">
          <mxGeometry x="546.5" y="970" width="20" height="15" as="geometry" />
        </mxCell>
        <mxCell id="Yl7VU8M9X4uE9OL1-MA8-206" value="" style="verticalLabelPosition=bottom;verticalAlign=top;html=1;shape=mxgraph.basic.rounded_frame;dx=10;whiteSpace=wrap;labelBackgroundColor=none;rounded=1;" parent="1" vertex="1">
          <mxGeometry x="576.5" y="970" width="20" height="15" as="geometry" />
        </mxCell>
        <mxCell id="Yl7VU8M9X4uE9OL1-MA8-207" value="&lt;b&gt;P1&lt;/b&gt;" style="text;html=1;strokeColor=none;fillColor=none;align=center;verticalAlign=middle;whiteSpace=wrap;rounded=1;labelBackgroundColor=none;" parent="1" vertex="1">
          <mxGeometry x="206.5" y="940" width="60" height="30" as="geometry" />
        </mxCell>
        <mxCell id="Yl7VU8M9X4uE9OL1-MA8-208" value="&lt;b&gt;P2&lt;/b&gt;" style="text;html=1;strokeColor=none;fillColor=none;align=center;verticalAlign=middle;whiteSpace=wrap;rounded=1;labelBackgroundColor=none;" parent="1" vertex="1">
          <mxGeometry x="236.5" y="940" width="60" height="30" as="geometry" />
        </mxCell>
        <mxCell id="Yl7VU8M9X4uE9OL1-MA8-209" value="&lt;b&gt;P3&lt;/b&gt;" style="text;html=1;strokeColor=none;fillColor=none;align=center;verticalAlign=middle;whiteSpace=wrap;rounded=1;labelBackgroundColor=none;" parent="1" vertex="1">
          <mxGeometry x="266.5" y="940" width="60" height="30" as="geometry" />
        </mxCell>
        <mxCell id="Yl7VU8M9X4uE9OL1-MA8-210" value="&lt;b&gt;P4&lt;/b&gt;" style="text;html=1;strokeColor=none;fillColor=none;align=center;verticalAlign=middle;whiteSpace=wrap;rounded=1;labelBackgroundColor=none;" parent="1" vertex="1">
          <mxGeometry x="296.5" y="940" width="60" height="30" as="geometry" />
        </mxCell>
        <mxCell id="Yl7VU8M9X4uE9OL1-MA8-211" value="&lt;b&gt;G1&lt;/b&gt;" style="text;html=1;strokeColor=none;fillColor=none;align=center;verticalAlign=middle;whiteSpace=wrap;rounded=1;labelBackgroundColor=none;" parent="1" vertex="1">
          <mxGeometry x="336.5" y="940" width="60" height="30" as="geometry" />
        </mxCell>
        <mxCell id="Yl7VU8M9X4uE9OL1-MA8-212" value="&lt;b&gt;G2&lt;/b&gt;" style="text;html=1;strokeColor=none;fillColor=none;align=center;verticalAlign=middle;whiteSpace=wrap;rounded=1;labelBackgroundColor=none;" parent="1" vertex="1">
          <mxGeometry x="366.5" y="940" width="60" height="30" as="geometry" />
        </mxCell>
        <mxCell id="Yl7VU8M9X4uE9OL1-MA8-213" value="&lt;b&gt;G3&lt;/b&gt;" style="text;html=1;strokeColor=none;fillColor=none;align=center;verticalAlign=middle;whiteSpace=wrap;rounded=1;labelBackgroundColor=none;" parent="1" vertex="1">
          <mxGeometry x="396.5" y="940" width="60" height="30" as="geometry" />
        </mxCell>
        <mxCell id="Yl7VU8M9X4uE9OL1-MA8-214" value="&lt;b&gt;G4&lt;/b&gt;" style="text;html=1;strokeColor=none;fillColor=none;align=center;verticalAlign=middle;whiteSpace=wrap;rounded=1;labelBackgroundColor=none;" parent="1" vertex="1">
          <mxGeometry x="426.5" y="940" width="60" height="30" as="geometry" />
        </mxCell>
        <mxCell id="Yl7VU8M9X4uE9OL1-MA8-215" value="&lt;b&gt;G5&lt;/b&gt;" style="text;html=1;strokeColor=none;fillColor=none;align=center;verticalAlign=middle;whiteSpace=wrap;rounded=1;labelBackgroundColor=none;" parent="1" vertex="1">
          <mxGeometry x="471.5" y="940" width="60" height="30" as="geometry" />
        </mxCell>
        <mxCell id="Yl7VU8M9X4uE9OL1-MA8-216" value="&lt;b&gt;G6&lt;/b&gt;" style="text;html=1;strokeColor=none;fillColor=none;align=center;verticalAlign=middle;whiteSpace=wrap;rounded=1;labelBackgroundColor=none;" parent="1" vertex="1">
          <mxGeometry x="496.5" y="940" width="60" height="30" as="geometry" />
        </mxCell>
        <mxCell id="Yl7VU8M9X4uE9OL1-MA8-217" value="&lt;b&gt;G7&lt;/b&gt;" style="text;html=1;strokeColor=none;fillColor=none;align=center;verticalAlign=middle;whiteSpace=wrap;rounded=1;labelBackgroundColor=none;" parent="1" vertex="1">
          <mxGeometry x="526.5" y="940" width="60" height="30" as="geometry" />
        </mxCell>
        <mxCell id="Yl7VU8M9X4uE9OL1-MA8-218" value="&lt;b&gt;G8&lt;/b&gt;" style="text;html=1;strokeColor=none;fillColor=none;align=center;verticalAlign=middle;whiteSpace=wrap;rounded=1;labelBackgroundColor=none;" parent="1" vertex="1">
          <mxGeometry x="556.5" y="940" width="60" height="30" as="geometry" />
        </mxCell>
        <mxCell id="Yl7VU8M9X4uE9OL1-MA8-219" value="&lt;i&gt;&lt;b&gt;&lt;u&gt;GPON PORT&lt;/u&gt;&lt;/b&gt;&lt;/i&gt;" style="text;html=1;strokeColor=none;fillColor=none;align=center;verticalAlign=middle;whiteSpace=wrap;rounded=1;labelBackgroundColor=none;" parent="1" vertex="1">
          <mxGeometry x="361.5" y="905" width="85" height="25" as="geometry" />
        </mxCell>
        <mxCell id="Yl7VU8M9X4uE9OL1-MA8-220" value="&lt;b&gt;&lt;i&gt;&lt;u&gt;ETHERNET PORT&lt;/u&gt;&lt;/i&gt;&lt;/b&gt;" style="text;html=1;strokeColor=none;fillColor=none;align=center;verticalAlign=middle;whiteSpace=wrap;rounded=1;labelBackgroundColor=none;" parent="1" vertex="1">
          <mxGeometry x="491.5" y="902.5" width="105" height="30" as="geometry" />
        </mxCell>
        <mxCell id="Yl7VU8M9X4uE9OL1-MA8-221" value="&lt;b&gt;&lt;i&gt;&lt;u&gt;PON&lt;/u&gt;&lt;/i&gt;&lt;/b&gt;" style="text;html=1;strokeColor=none;fillColor=none;align=center;verticalAlign=middle;whiteSpace=wrap;rounded=1;labelBackgroundColor=none;" parent="1" vertex="1">
          <mxGeometry x="226.5" y="905" width="60" height="30" as="geometry" />
        </mxCell>
        <mxCell id="Yl7VU8M9X4uE9OL1-MA8-222" value="&lt;b&gt;&lt;font style=&quot;font-size: 22px;&quot;&gt;251&lt;/font&gt;&lt;/b&gt;" style="text;html=1;strokeColor=none;fillColor=none;align=center;verticalAlign=middle;whiteSpace=wrap;rounded=0;" parent="1" vertex="1">
          <mxGeometry x="204" y="630" width="60" height="30" as="geometry" />
        </mxCell>
        <mxCell id="Yl7VU8M9X4uE9OL1-MA8-223" value="&lt;b&gt;&lt;font style=&quot;font-size: 22px;&quot;&gt;252&lt;/font&gt;&lt;/b&gt;" style="text;html=1;strokeColor=none;fillColor=none;align=center;verticalAlign=middle;whiteSpace=wrap;rounded=0;" parent="1" vertex="1">
          <mxGeometry x="204" y="380" width="60" height="30" as="geometry" />
        </mxCell>
        <mxCell id="Yl7VU8M9X4uE9OL1-MA8-224" value="&lt;b&gt;&lt;font style=&quot;font-size: 22px;&quot;&gt;254&lt;/font&gt;&lt;/b&gt;" style="text;html=1;strokeColor=none;fillColor=none;align=center;verticalAlign=middle;whiteSpace=wrap;rounded=0;" parent="1" vertex="1">
          <mxGeometry x="204" y="850" width="60" height="30" as="geometry" />
        </mxCell>
        <mxCell id="FiZlv9GbAcb9ufF7oLum-1" value="" style="verticalLabelPosition=bottom;verticalAlign=top;html=1;shape=mxgraph.basic.rounded_frame;dx=10;whiteSpace=wrap;labelBackgroundColor=none;rounded=1;" parent="1" vertex="1">
          <mxGeometry x="471.5" y="240" width="20" height="15" as="geometry" />
        </mxCell>
        <mxCell id="FiZlv9GbAcb9ufF7oLum-5" value="&lt;b&gt;G4&lt;/b&gt;" style="text;html=1;strokeColor=none;fillColor=none;align=center;verticalAlign=middle;whiteSpace=wrap;rounded=1;labelBackgroundColor=none;" parent="1" vertex="1">
          <mxGeometry x="454" y="202.5" width="60" height="30" as="geometry" />
        </mxCell>
        <mxCell id="FiZlv9GbAcb9ufF7oLum-7" value="" style="verticalLabelPosition=bottom;verticalAlign=top;html=1;shape=mxgraph.basic.rounded_frame;dx=10;whiteSpace=wrap;labelBackgroundColor=none;rounded=1;" parent="1" vertex="1">
          <mxGeometry x="324" y="240" width="20" height="15" as="geometry" />
        </mxCell>
        <mxCell id="FiZlv9GbAcb9ufF7oLum-8" value="&lt;b&gt;P4&lt;/b&gt;" style="text;html=1;strokeColor=none;fillColor=none;align=center;verticalAlign=middle;whiteSpace=wrap;rounded=1;labelBackgroundColor=none;" parent="1" vertex="1">
          <mxGeometry x="314" y="210" width="40" height="17.5" as="geometry" />
        </mxCell>
        <mxCell id="FiZlv9GbAcb9ufF7oLum-9" value="&lt;span style=&quot;font-size: 22px;&quot;&gt;&lt;b&gt;DBC&lt;/b&gt;&lt;/span&gt;" style="text;html=1;strokeColor=none;fillColor=none;align=center;verticalAlign=middle;whiteSpace=wrap;rounded=0;" parent="1" vertex="1">
          <mxGeometry x="201.5" y="140" width="60" height="30" as="geometry" />
        </mxCell>
        <mxCell id="FiZlv9GbAcb9ufF7oLum-10" value="&lt;b&gt;G9&lt;/b&gt;" style="text;html=1;strokeColor=none;fillColor=none;align=center;verticalAlign=middle;whiteSpace=wrap;rounded=1;labelBackgroundColor=none;" parent="1" vertex="1">
          <mxGeometry x="524" y="212.5" width="60" height="30" as="geometry" />
        </mxCell>
        <mxCell id="FiZlv9GbAcb9ufF7oLum-11" value="&lt;b&gt;G10&lt;/b&gt;" style="text;html=1;strokeColor=none;fillColor=none;align=center;verticalAlign=middle;whiteSpace=wrap;rounded=1;labelBackgroundColor=none;" parent="1" vertex="1">
          <mxGeometry x="564" y="212.5" width="60" height="30" as="geometry" />
        </mxCell>
        <mxCell id="FiZlv9GbAcb9ufF7oLum-12" value="&lt;b&gt;G11&lt;/b&gt;" style="text;html=1;strokeColor=none;fillColor=none;align=center;verticalAlign=middle;whiteSpace=wrap;rounded=1;labelBackgroundColor=none;" parent="1" vertex="1">
          <mxGeometry x="596.5" y="212.5" width="60" height="30" as="geometry" />
        </mxCell>
        <mxCell id="FiZlv9GbAcb9ufF7oLum-13" value="&lt;b&gt;G8&lt;/b&gt;" style="text;html=1;strokeColor=none;fillColor=none;align=center;verticalAlign=middle;whiteSpace=wrap;rounded=1;labelBackgroundColor=none;" parent="1" vertex="1">
          <mxGeometry x="596.5" y="170" width="60" height="30" as="geometry" />
        </mxCell>
        <mxCell id="FiZlv9GbAcb9ufF7oLum-14" value="&lt;b&gt;G7&lt;/b&gt;" style="text;html=1;strokeColor=none;fillColor=none;align=center;verticalAlign=middle;whiteSpace=wrap;rounded=1;labelBackgroundColor=none;" parent="1" vertex="1">
          <mxGeometry x="564" y="170" width="60" height="30" as="geometry" />
        </mxCell>
        <mxCell id="FiZlv9GbAcb9ufF7oLum-15" value="&lt;b&gt;G5&lt;/b&gt;" style="text;html=1;strokeColor=none;fillColor=none;align=center;verticalAlign=middle;whiteSpace=wrap;rounded=1;labelBackgroundColor=none;" parent="1" vertex="1">
          <mxGeometry x="524" y="170" width="60" height="30" as="geometry" />
        </mxCell>
        <mxCell id="FiZlv9GbAcb9ufF7oLum-16" style="edgeStyle=orthogonalEdgeStyle;rounded=0;orthogonalLoop=1;jettySize=auto;html=1;entryX=0.5;entryY=1;entryDx=0;entryDy=0;entryPerimeter=0;" parent="1" source="Yl7VU8M9X4uE9OL1-MA8-80" target="Yl7VU8M9X4uE9OL1-MA8-141" edge="1">
          <mxGeometry relative="1" as="geometry">
            <Array as="points">
              <mxPoint x="534" y="203" />
              <mxPoint x="534" y="355" />
              <mxPoint x="734" y="355" />
              <mxPoint x="734" y="560" />
              <mxPoint x="554" y="560" />
            </Array>
          </mxGeometry>
        </mxCell>
        <mxCell id="FiZlv9GbAcb9ufF7oLum-17" style="edgeStyle=orthogonalEdgeStyle;rounded=0;orthogonalLoop=1;jettySize=auto;html=1;entryX=0.5;entryY=1;entryDx=0;entryDy=0;entryPerimeter=0;" parent="1" source="Yl7VU8M9X4uE9OL1-MA8-142" target="Yl7VU8M9X4uE9OL1-MA8-169" edge="1">
          <mxGeometry relative="1" as="geometry">
            <Array as="points">
              <mxPoint x="604" y="508" />
              <mxPoint x="604" y="420" />
              <mxPoint x="474" y="420" />
              <mxPoint x="474" y="800" />
              <mxPoint x="499" y="800" />
            </Array>
          </mxGeometry>
        </mxCell>
        <mxCell id="FiZlv9GbAcb9ufF7oLum-18" style="edgeStyle=orthogonalEdgeStyle;rounded=0;orthogonalLoop=1;jettySize=auto;html=1;entryX=0.5;entryY=1;entryDx=0;entryDy=0;entryPerimeter=0;" parent="1" source="Yl7VU8M9X4uE9OL1-MA8-171" target="Yl7VU8M9X4uE9OL1-MA8-203" edge="1">
          <mxGeometry relative="1" as="geometry">
            <Array as="points">
              <mxPoint x="554" y="790" />
              <mxPoint x="684" y="790" />
              <mxPoint x="684" y="1050" />
              <mxPoint x="502" y="1050" />
            </Array>
          </mxGeometry>
        </mxCell>
        <mxCell id="FiZlv9GbAcb9ufF7oLum-19" value="&lt;i&gt;&lt;b&gt;Maa Durga Cable TV Network&lt;/b&gt;&lt;/i&gt;" style="text;html=1;strokeColor=none;fillColor=none;align=center;verticalAlign=middle;whiteSpace=wrap;rounded=0;" parent="1" vertex="1">
          <mxGeometry x="514" y="1070" width="300" height="30" as="geometry" />
        </mxCell>
        <mxCell id="8nBF_byf5lNOyw5Rrst7-1" value="&lt;b&gt;GTPL&lt;/b&gt;" style="text;html=1;strokeColor=none;fillColor=none;align=center;verticalAlign=middle;whiteSpace=wrap;rounded=0;" vertex="1" parent="1">
          <mxGeometry x="4" y="70" width="60" height="30" as="geometry" />
        </mxCell>
      </root>
    </mxGraphModel>
  </diagram>
</mxfile>
